<svg width="43" height="43" viewBox="0 0 43 43" fill="none" xmlns="http://www.w3.org/2000/svg">
<path d="M41.3846 26.0915C38.5786 37.3464 27.1793 44.196 15.9231 41.3893C4.6715 38.5833 -2.17806 27.1833 0.629257 15.9291C3.43395 4.67291 14.8333 -2.17732 26.0862 0.628689C37.3417 3.43469 44.1906 14.836 41.3846 26.0915Z" fill="#F7931A"/>
<path d="M30.2662 18.0158C30.6844 15.2203 28.5559 13.7175 25.6455 12.715L26.5896 8.92815L24.2845 8.35369L23.3654 12.0408C22.7594 11.8898 22.137 11.7473 21.5186 11.6061L22.4443 7.89478L20.1405 7.32031L19.1958 11.1059C18.6942 10.9916 18.2018 10.8787 17.7238 10.7599L17.7265 10.7481L14.5476 9.95431L13.9344 12.4163C13.9344 12.4163 15.6446 12.8082 15.6085 12.8325C16.5421 13.0656 16.7108 13.6834 16.6826 14.1732L15.6072 18.4872C15.6715 18.5036 15.7549 18.5273 15.8468 18.564C15.77 18.545 15.688 18.524 15.6033 18.5036L14.0959 24.547C13.9816 24.8306 13.6921 25.256 13.0395 25.0945C13.0625 25.128 11.3641 24.6763 11.3641 24.6763L10.2197 27.3149L13.2194 28.0627C13.7775 28.2025 14.3243 28.3489 14.8627 28.4868L13.9088 32.317L16.2112 32.8915L17.1559 29.102C17.7849 29.2727 18.3955 29.4302 18.9929 29.5786L18.0515 33.3504L20.3565 33.9248L21.3105 30.1019C25.2411 30.8457 28.1968 30.5457 29.4409 26.9906C30.4434 24.1281 29.391 22.4769 27.323 21.4002C28.829 21.0529 29.9635 20.0622 30.2662 18.0158ZM24.9995 25.4011C24.2872 28.2636 19.4676 26.7162 17.9051 26.3281L19.1708 21.2538C20.7334 21.6438 25.744 22.4159 24.9995 25.4011ZM25.7125 17.9745C25.0625 20.5783 21.0511 19.2554 19.7499 18.931L20.8975 14.3288C22.1987 14.6531 26.3894 15.2584 25.7125 17.9745Z" fill="white"/>
</svg>
